/* XPM */
static char *envmapicon[] = {
/* columns rows colors chars-per-pixel */
"32 32 256 2 ",
"   c #2D5676",
".  c #992B2C",
"X  c #A9262B",
"o  c #B12724",
"O  c #C35361",
"+  c #0F4581",
"@  c #3E5A8B",
"#  c #205B9D",
"$  c #3D6694",
"%  c #296587",
"&  c #175BA2",
"*  c #225DA9",
"=  c #2165AC",
"-  c #2372BF",
";  c #3B75A7",
":  c #586E9F",
">  c #5D6A94",
",  c #477CB0",
"<  c #597CB1",
"1  c #6B7EA9",
"2  c #9A6B8D",
"3  c #B87D9B",
"4  c #3B89B7",
"5  c #7B9798",
"6  c #488EBF",
"7  c #5D93BD",
"8  c #5E9DBC",
"9  c #6A8CAB",
"0  c #658CA7",
"q  c #6E93A3",
"w  c #7D93AC",
"e  c #7393A8",
"r  c #6786B3",
"t  c #6997B7",
"y  c #7692BD",
"u  c #7697B9",
"i  c #7785A8",
"p  c #6EA0B9",
"a  c #7DA2BC",
"s  c #3C91C3",
"d  c #2A9EDC",
"f  c #2394D8",
"g  c #389AD3",
"h  c #37A2DA",
"j  c #3794E1",
"k  c #1AA8EA",
"l  c #29A9E6",
"z  c #39AAE5",
"x  c #26B1EC",
"c  c #35B1E9",
"v  c #27AAF1",
"b  c #3CACF4",
"n  c #28B1F6",
"m  c #469CCE",
"M  c #5D98C7",
"N  c #4993D1",
"B  c #689FC6",
"V  c #6295C4",
"C  c #7694C8",
"Z  c #58A2CF",
"A  c #57A0CD",
"S  c #4CA3D2",
"D  c #43A0DD",
"F  c #5BA9D4",
"G  c #58A6DC",
"H  c #5EB1D1",
"J  c #65A2C9",
"K  c #75A4C5",
"L  c #73ABC6",
"P  c #75ADCE",
"I  c #7BA7C4",
"U  c #6CBACB",
"Y  c #7BB4CE",
"T  c #74BBCD",
"R  c #6BABD9",
"E  c #7BADD8",
"W  c #6CBCD4",
"Q  c #63B9DA",
"!  c #68B8D9",
"~  c #73B3D5",
"^  c #76BAD3",
"/  c #76BDDD",
"(  c #79B9D9",
")  c #58A9E1",
"_  c #7FB7E6",
"`  c #71BFE5",
"'  c #6BC3D9",
"]  c #75C2D6",
"[  c #6AC3E3",
"{  c #7EC7E8",
"}  c #73C7E3",
"|  c #B28997",
" . c #BC909D",
".. c #838DB8",
"X. c #8599B9",
"o. c #9699B8",
"O. c #8E92A8",
"+. c #A89EBA",
"@. c #82A3AC",
"#. c #89A7B7",
"$. c #9AA7B8",
"%. c #88B5BC",
"&. c #95B9B7",
"*. c #AEA6BA",
"=. c #A1BABA",
"-. c #A9BFBC",
";. c #B6AAB8",
":. c #D79A9F",
">. c #DC9B9D",
",. c #E88C8F",
"<. c #E78792",
"1. c #C498A8",
"2. c #DFACA9",
"3. c #C3A3B4",
"4. c #C5ACB9",
"5. c #E2A0A4",
"6. c #F8A6A6",
"7. c #FFB3B6",
"8. c #9CC3BB",
"9. c #95C4BC",
"0. c #ABC7BB",
"q. c #EDC1BE",
"w. c #8D9BCA",
"e. c #87A2C7",
"r. c #95A5C2",
"t. c #94AAC6",
"y. c #93ABCE",
"u. c #99A5C2",
"i. c #8FBBC2",
"p. c #86B3CC",
"a. c #8FB7C8",
"s. c #94B3C3",
"d. c #9AB4C3",
"f. c #93B3CE",
"g. c #92BBCC",
"h. c #97BACA",
"j. c #82A9D0",
"k. c #85B4D3",
"l. c #8CB7D7",
"z. c #87B8D6",
"x. c #81B1DC",
"c. c #8BBDD8",
"v. c #93B4D3",
"b. c #9CB3D3",
"n. c #97BED4",
"m. c #9ABED2",
"M. c #9ABCDD",
"N. c #ACABC3",
"B. c #A3A8C1",
"V. c #A9BBC7",
"C. c #A6BFD3",
"Z. c #B2B6D1",
"A. c #B7BBC4",
"S. c #C5B4C5",
"D. c #C7BDD6",
"F. c #D9B7D0",
"G. c #E2BFC6",
"H. c #FFBAC0",
"J. c #9CC4C3",
"K. c #97C4CA",
"L. c #9DC4CC",
"P. c #84C5DB",
"I. c #8BC3DC",
"U. c #93C3D3",
"Y. c #99CAD9",
"T. c #A8C7CA",
"R. c #B4C9CB",
"E. c #B7C6C9",
"W. c #BBD1CF",
"Q. c #A3C8D6",
"!. c #BACAD3",
"~. c #B6C3D8",
"^. c #ADD0D2",
"/. c #8CC3E5",
"(. c #8DCBE4",
"). c #94C1E3",
"_. c #92CCF1",
"`. c #95D6E8",
"'. c #ABCEE1",
"]. c #BECAE2",
"[. c #B0CFEE",
"{. c #A4D1E3",
"}. c #A8D7E9",
"|. c #A6D9E5",
" X c #B1D2E4",
".X c #B7D6E8",
"XX c #B1DAF0",
"oX c #AFE2F5",
"OX c #D6C3CE",
"+X c #C3D7CC",
"@X c #CCD5DD",
"#X c #CEDDDA",
"$X c #D5D7DE",
"%X c #D2C7D7",
"&X c #E1CBCE",
"*X c #E3DFDF",
"=X c #ECD8D9",
"-X c #E5CADB",
";X c #DDE4DE",
":X c #DCE8DE",
">X c #E4E4DE",
",X c #E9E6DF",
"<X c #E3E9DF",
"1X c #F5E3DF",
"2X c #C3CFE5",
"3X c #DCCCE6",
"4X c #CAD7E2",
"5X c #CBDAE4",
"6X c #C1DCEB",
"7X c #CBDBEB",
"8X c #C8D7E7",
"9X c #D3D6E4",
"0X c #D5DCE5",
"qX c #DBDEE2",
"wX c #D8D8E7",
"eX c #C4D9F4",
"rX c #F9CCE1",
"tX c #E2DDE3",
"yX c #E9DCE3",
"uX c #E5DDEA",
"iX c #FFD7E3",
"pX c #FEDDE3",
"aX c #CBE3ED",
"sX c #CFEBEF",
"dX c #C5E2E6",
"fX c #D2E5E6",
"gX c #DDE4E3",
"hX c #DDE9E4",
"jX c #D5E3EB",
"kX c #DCE4EB",
"lX c #DDE9EC",
"zX c #D2ECED",
"xX c #C4EAFB",
"cX c #DEECF1",
"vX c #D5ECF9",
"bX c #DDECFB",
"nX c #D5E5F6",
"mX c #D4F1F7",
"MX c #DEF1F5",
"NX c #E4E5E4",
"BX c #E9E4E4",
"VX c #E4E9E4",
"CX c #E9E9E5",
"ZX c #E5E4EA",
"AX c #E9E3EA",
"SX c #E4E9EB",
"DX c #EAE9ED",
"FX c #F2E4EC",
"GX c #F2E7E3",
"HX c #E2E5F4",
"JX c #E3EBF3",
"KX c #EAEAF2",
"LX c #E1E3FA",
"PX c #EAECFB",
"IX c #E6E6F8",
"UX c #F9E7F1",
/* pixels */
"BXBXZXZXhXhXNXBXZXDXNXNXAXuXIXSXZXNXBXBX>XZXNXSXuXBXBXNX:X:X<XNX",
"BXBXZXZXlXhXCXBXZXNXBXNXSXHX8X!.kXNXNX>XZXNXZXNXAXZXNXVXVXVXNX,X",
",XNXBXZXkXZXBXBXNXZXNXhXnX.Xa e 7XkXVXZXNXZXZXBXZXVXgXZXBXBXNXBX",
"NXNXBXNXZXZXAXAXNXNX<XcX{.Y P 0 s.jXZXZXNXNXNXBXVXgXhXZXBXZXBXZX",
"AXNXNXNXZXBXBXBXNXNXlX.XT / { P 9 2XLXuXAXyXNXNXZXNXZXNXZXNXZXHX",
"ZXNXNX<XBXBX,X,XNXZXlXQ.T } / ( t X.LXFXAXBX<X,XBXNX>XNXNXZXZXZX",
"NXNXhXNXBXyX,X,X>XAXZXaXY.Y /./.l.0 ~.HXAXBX>X<XVX<X<XNXNXZXuXAX",
"VXVXhXZXZXZXBX*XBXBXSXJXaXY.l.).).a e 7XIXNXNX>X<XBXNX<X>XBXAXAX",
"NXBXNXZXjX~.;.OXFXVXNXVXkXjXC.v.M.M.u t.LXZXNXNXNXNXNXCXNXNXNXAX",
"BXtXAXlX.Xe.o.*.-XCXgXVXNXSX0XV.b.M.l.9 ].PXAXZXZXNXtXZXVX;XBXBX",
"ZXSXZXsXP.8 b.o.S.AXJXgXNXBXNXqXV.g.I.P u 7XIXCXZXKXDXNXhX:XVX,X",
"ZXSXVXdX] H E y.o.%XVXgXZX,XGX=X4Xh.P./ K X.].9X0X9XkXwXlXhXgXNX",
"BXNXDX7X^ Q Q ~ t.N.qXVXZXNX=XpXSX X~ [ ! V 9 r.u.r.o.#.$.5XJXZX",
"NXBXAXjX}.W [ Q p.#.A.ZXZXFX&X2.pXIX/.F F M C f.y.y.b.t.@.V.uXAX",
"NX>XBXZXvX{.U ' ^ p.$.3XZXiX7.. ,.iXeXJ M 7 I m.m.U.K.#.$.@XKXBX",
"NX<XNXZXkXvX|.U W ^ r.N.wXUXH.. X ,.3Xj.A Z K K.g.i.i.w E.ZXyX,X",
"NXNXCXBXgXJXfX|.W ! x.y.Z.uXpX6.o X 3 w.g h ~ XX^.&.5 -.ZXBXBXZX",
"ZX>X,XNXZXSXCXzX`.Q R E X.N.kXpX6.O 2 C g l g _.xX#XR.qXBXAXDXtX",
"AXBXyXBXDXZXZXzXxX(.m ) w...o.D.rXF.w.6 z l d D _ [.bXDXBXgXgXSX",
"BXZXBXAXAXZXkXlXvXoXS G C ..1 i N.u.B S c v v b N $ w @XSXNX;XhX",
"uXHXZXZXNXBXBXhXmX}.J M < @ @ e.h.q % s c k n v ) V   d.HXyXVXhX",
"ZXhXkXhXtX,XAXHX.X#.r < C y y d.Q.h.L 4 d n v f N R k.6XkXKXSXgX",
"NXhXNXVX,XNXuX9XB...: r .XnX8X~.=.m.n.~ g z j - & ,  XMXlXuXAXAX",
"NX>XVXNXBXFX&X4.+.o.> b.MXcXHXfX!.&.s.c.` s = * # E vXhXkXZXuXFX",
"NXDXBXBXAXG.>.:.3.O.o.7XJXkXNXSXfXR.i.K.U.L ; + V xXbXAXDXqXAXAX",
"SXqXAXAXS. .>.5.1.S.9XZXZXZXVX>XVXlXT.9.8.K.z.8 p '.HXZXtXSXVX>X",
"NXBXAXyX4.| 1.1.OXtXDXZXtXAXCXBX>X,X#X0.8.9.J.K.%.%.5XCXBXNX>XVX",
"BX,X*XDX=X3.3.-XAXZXBXNXZXNXBXBXNX>XVX+X8.8.8.8.%.T.0XZXBX<X,X,X",
"NXNXNXhXyXtXyXFXDXNXNX<X,XNXZXZXNXZXZXjXT.#.=.-.W.fXhXZXBXBXBX>X",
"BX;XhXgXNXDXZXyXZXNXNXNX,XNXZXZXZXSXZXJX8X=.E.:XhXhXSXAXBXBXNXNX",
"NXNXSXSXNX>X>XBXNXBXNXNXNX,XBXNXNXNX>XNXhXgXgXVXNX>XZXNXNXVXZXZX",
"VXBXuXZXBX<X<X>XBXAXAXNX>XNXBXNXBX>X,X<XVXCXZXNX>XBXAXNX>XhXZXZX"
};
